<?xml version="1.0" encoding="utf-8"?>
<!-- Generator: Adobe Illustrator 26.5.0, SVG Export Plug-In . SVG Version: 6.00 Build 0)  -->
<svg version="1.1" id="Capa_1" xmlns="http://www.w3.org/2000/svg" xmlns:xlink="http://www.w3.org/1999/xlink" x="0px" y="0px"
	 viewBox="0 0 157.39 157.39" style="enable-background:new 0 0 157.39 157.39;" xml:space="preserve">
<g>
	<path d="M78.7,0C35.23,0,0,35.23,0,78.7s35.23,78.7,78.7,78.7c43.46,0,78.7-35.23,78.7-78.7S122.16,0,78.7,0z M78.7,134.91
		c-31.04,0-56.21-25.17-56.21-56.21S47.65,22.48,78.7,22.48c31.04,0,56.21,25.17,56.21,56.21S109.74,134.91,78.7,134.91z"/>
	<path d="M78.7,44.97c-18.63,0-33.73,15.1-33.73,33.73s15.1,33.73,33.73,33.73s33.73-15.1,33.73-33.73
		C112.42,60.07,97.32,44.97,78.7,44.97z M78.7,89.94c-6.21,0-11.24-5.03-11.24-11.24s5.03-11.24,11.24-11.24s11.24,5.03,11.24,11.24
		S84.9,89.94,78.7,89.94z"/>
</g>
</svg>
