<?xml version="1.0" encoding="utf-8"?>
<!-- Generator: Adobe Illustrator 26.5.0, SVG Export Plug-In . SVG Version: 6.00 Build 0)  -->
<svg version="1.1" id="Capa_1" xmlns="http://www.w3.org/2000/svg" xmlns:xlink="http://www.w3.org/1999/xlink" x="0px" y="0px"
	 viewBox="0 0 157.39 157.39" style="enable-background:new 0 0 157.39 157.39;" xml:space="preserve">
<g>
	<path d="M22.48,157.39c0-12.42-10.07-22.48-22.48-22.48v22.48H22.48z"/>
	<path d="M0,112.42c24.84,0,44.97,20.13,44.97,44.97h22.48c0-37.25-30.2-67.45-67.45-67.45V112.42z"/>
	<path d="M0,67.45c49.67,0,89.94,40.27,89.94,89.94h22.48C112.42,95.3,62.09,44.97,0,44.97V67.45z"/>
	<path d="M0,22.48c74.51,0,134.91,60.4,134.91,134.91h22.48C157.39,70.47,86.92,0,0,0V22.48z"/>
</g>
</svg>
