<?xml version="1.0" encoding="utf-8"?>
<!-- Generator: Adobe Illustrator 26.5.0, SVG Export Plug-In . SVG Version: 6.00 Build 0)  -->
<svg version="1.1" id="Capa_1" xmlns="http://www.w3.org/2000/svg" xmlns:xlink="http://www.w3.org/1999/xlink" x="0px" y="0px"
	 viewBox="0 0 157.39 157.39" style="enable-background:new 0 0 157.39 157.39;" xml:space="preserve">
<g>
	<circle cx="11.24" cy="11.24" r="11.24"/>
	<circle cx="56.21" cy="11.24" r="11.24"/>
	<circle cx="101.18" cy="11.24" r="11.24"/>
	<circle cx="146.15" cy="11.24" r="11.24"/>
	<circle cx="11.24" cy="56.21" r="11.24"/>
	<circle cx="56.21" cy="56.21" r="11.24"/>
	<circle cx="101.18" cy="56.21" r="11.24"/>
	<circle cx="146.15" cy="56.21" r="11.24"/>
	<circle cx="11.24" cy="101.18" r="11.24"/>
	<circle cx="56.21" cy="101.18" r="11.24"/>
	<circle cx="101.18" cy="101.18" r="11.24"/>
	<circle cx="146.15" cy="101.18" r="11.24"/>
	<circle cx="11.24" cy="146.15" r="11.24"/>
	<circle cx="56.21" cy="146.15" r="11.24"/>
	<circle cx="101.18" cy="146.15" r="11.24"/>
	<circle cx="33.73" cy="123.66" r="11.24"/>
	<circle cx="78.7" cy="123.66" r="11.24"/>
	<circle cx="123.66" cy="123.66" r="11.24"/>
	<circle cx="33.73" cy="78.7" r="11.24"/>
	<circle cx="78.7" cy="78.7" r="11.24"/>
	<circle cx="123.66" cy="78.7" r="11.24"/>
	<circle cx="33.73" cy="33.73" r="11.24"/>
	<circle cx="78.7" cy="33.73" r="11.24"/>
	<circle cx="123.66" cy="33.73" r="11.24"/>
	<circle cx="146.15" cy="146.15" r="11.24"/>
</g>
</svg>
