<?xml version="1.0" encoding="utf-8"?>
<!-- Generator: Adobe Illustrator 26.5.0, SVG Export Plug-In . SVG Version: 6.00 Build 0)  -->
<svg version="1.1" id="Capa_1" xmlns="http://www.w3.org/2000/svg" xmlns:xlink="http://www.w3.org/1999/xlink" x="0px" y="0px"
	 viewBox="0 0 157.4 157.4" style="enable-background:new 0 0 157.4 157.4;" xml:space="preserve">
<style type="text/css">
	.st0{fill:#878787;}
</style>
<g>
	<path class="st0" d="M78.7,0C35.2,0,0,35.2,0,78.7s35.2,78.7,78.7,78.7c43.5,0,78.7-35.2,78.7-78.7S122.2,0,78.7,0z M78.7,134.9
		c-31,0-56.2-25.2-56.2-56.2s25.2-56.2,56.2-56.2c31,0,56.2,25.2,56.2,56.2S109.7,134.9,78.7,134.9z"/>
	<path class="st0" d="M78.7,45C60.1,45,45,60.1,45,78.7s15.1,33.7,33.7,33.7s33.7-15.1,33.7-33.7C112.4,60.1,97.3,45,78.7,45z
		 M78.7,89.9c-6.2,0-11.2-5-11.2-11.2s5-11.2,11.2-11.2s11.2,5,11.2,11.2S84.9,89.9,78.7,89.9z"/>
</g>
</svg>
