<?xml version="1.0" encoding="utf-8"?>
<!-- Generator: Adobe Illustrator 26.5.0, SVG Export Plug-In . SVG Version: 6.00 Build 0)  -->
<svg version="1.1" id="Capa_1" xmlns="http://www.w3.org/2000/svg" xmlns:xlink="http://www.w3.org/1999/xlink" x="0px" y="0px"
	 viewBox="0 0 157.39 157.39" style="enable-background:new 0 0 157.39 157.39;" xml:space="preserve">
<g>
	<rect width="22.48" height="22.48"/>
	<rect x="44.97" width="22.48" height="22.48"/>
	<rect x="89.94" width="22.48" height="22.48"/>
	<rect x="134.91" width="22.48" height="22.48"/>
	<rect x="22.48" y="22.48" width="22.48" height="22.48"/>
	<rect x="67.45" y="22.48" width="22.48" height="22.48"/>
	<rect x="112.42" y="22.48" width="22.48" height="22.48"/>
	<rect y="44.97" width="22.48" height="22.48"/>
	<rect x="44.97" y="44.97" width="22.48" height="22.48"/>
	<rect x="89.94" y="44.97" width="22.48" height="22.48"/>
	<rect x="134.91" y="44.97" width="22.48" height="22.48"/>
	<rect x="22.48" y="67.45" width="22.48" height="22.48"/>
	<rect x="67.45" y="67.45" width="22.48" height="22.48"/>
	<rect x="112.42" y="67.45" width="22.48" height="22.48"/>
	<rect y="89.94" width="22.48" height="22.48"/>
	<rect x="44.97" y="89.94" width="22.48" height="22.48"/>
	<rect x="89.94" y="89.94" width="22.48" height="22.48"/>
	<rect x="134.91" y="89.94" width="22.48" height="22.48"/>
	<rect x="22.48" y="112.42" width="22.48" height="22.48"/>
	<rect x="67.45" y="112.42" width="22.48" height="22.48"/>
	<rect x="112.42" y="112.42" width="22.48" height="22.48"/>
	<rect y="134.91" width="22.48" height="22.48"/>
	<rect x="44.97" y="134.91" width="22.48" height="22.48"/>
	<rect x="89.94" y="134.91" width="22.48" height="22.48"/>
	<rect x="134.91" y="134.91" width="22.48" height="22.48"/>
</g>
</svg>
