<?xml version="1.0" encoding="utf-8"?>
<!-- Generator: Adobe Illustrator 26.5.0, SVG Export Plug-In . SVG Version: 6.00 Build 0)  -->
<svg version="1.1" id="Capa_1" xmlns="http://www.w3.org/2000/svg" xmlns:xlink="http://www.w3.org/1999/xlink" x="0px" y="0px"
	 viewBox="0 0 157.39 157.39" style="enable-background:new 0 0 157.39 157.39;" xml:space="preserve">
<g>
	<path d="M157.39,134.91c-12.42,0-22.48,10.07-22.48,22.48h22.48V134.91z"/>
	<path d="M89.94,157.39c0-37.25,30.2-67.45,67.45-67.45v22.48c-24.84,0-44.97,20.13-44.97,44.97H89.94z"/>
	<path d="M157.39,67.45c-49.67,0-89.94,40.27-89.94,89.94H44.97c0-62.09,50.33-112.42,112.42-112.42V67.45z"/>
	<path d="M157.39,0C70.47,0,0,70.47,0,157.39h22.48c0-74.51,60.4-134.91,134.91-134.91V0z"/>
</g>
</svg>
