<?xml version="1.0" encoding="utf-8"?>
<!-- Generator: Adobe Illustrator 26.5.0, SVG Export Plug-In . SVG Version: 6.00 Build 0)  -->
<svg version="1.1" id="Capa_1" xmlns="http://www.w3.org/2000/svg" xmlns:xlink="http://www.w3.org/1999/xlink" x="0px" y="0px"
	 viewBox="0 0 157.39 157.39" style="enable-background:new 0 0 157.39 157.39;" xml:space="preserve">
<g>
	<path d="M157.39,22.48c-12.42,0-22.48-10.07-22.48-22.48h22.48V22.48z"/>
	<path d="M157.39,67.45c-37.25,0-67.45-30.2-67.45-67.45h22.48c0,24.84,20.13,44.97,44.97,44.97V67.45z"/>
	<path d="M157.39,157.39C70.47,157.39,0,86.92,0,0h22.48c0,74.51,60.4,134.91,134.91,134.91V157.39z"/>
	<path d="M157.39,87.24v25.18C95.3,112.42,44.97,62.09,44.97,0h22.48c0,49.67,40.27,89.94,89.94,89.94"/>
</g>
</svg>
