<?xml version="1.0" encoding="utf-8"?>
<!-- Generator: Adobe Illustrator 26.5.0, SVG Export Plug-In . SVG Version: 6.00 Build 0)  -->
<svg version="1.1" id="Capa_1" xmlns="http://www.w3.org/2000/svg" xmlns:xlink="http://www.w3.org/1999/xlink" x="0px" y="0px"
	 viewBox="0 0 934 192" style="enable-background:new 0 0 934 192;" xml:space="preserve">
<style type="text/css">
	.st0{fill:#FFFFFF;}
	.st1{fill:#FFD00F;}
</style>
<g>
	<g>
		<rect x="17.08" y="28.87" class="st0" width="33.6" height="134.42"/>
		<rect x="243.91" y="28.87" class="st0" width="33.6" height="134.42"/>
		<path class="st0" d="M134.69,70.87c0-4.64,3.76-8.4,8.4-8.4h58.81v-33.6h-58.81c-23.2,0-42.01,18.81-42.01,42.01v92.41h33.6V70.87
			z"/>
		<g>
			<path class="st0" d="M452.9,163.29c-1.66,0-3.12-0.37-4.37-1.11c-1.25-0.74-2.23-1.75-2.93-3.01c-0.7-1.27-1.05-2.69-1.05-4.28
				c0-1.6,0.35-3.03,1.05-4.29c0.7-1.26,1.68-2.26,2.93-3c1.25-0.74,2.71-1.11,4.37-1.11c1.66,0,3.12,0.37,4.36,1.1
				c1.24,0.73,2.22,1.73,2.92,3c0.7,1.27,1.05,2.7,1.05,4.3c0,1.58-0.35,3.01-1.05,4.28c-0.7,1.27-1.67,2.27-2.92,3.01
				C456.02,162.92,454.56,163.29,452.9,163.29z M452.9,162.27c1.43,0,2.69-0.33,3.78-0.98c1.09-0.65,1.93-1.54,2.53-2.66
				c0.6-1.12,0.9-2.37,0.9-3.76c0-1.4-0.3-2.66-0.91-3.77c-0.61-1.11-1.45-1.99-2.53-2.64c-1.08-0.65-2.33-0.98-3.77-0.98
				c-1.43,0-2.69,0.33-3.78,0.98c-1.09,0.65-1.94,1.53-2.55,2.64c-0.61,1.11-0.91,2.37-0.91,3.77c0,1.38,0.3,2.64,0.91,3.76
				c0.61,1.12,1.46,2.01,2.55,2.66C450.21,161.95,451.47,162.27,452.9,162.27z M449.69,159.51v-9.14h3.78
				c0.67,0,1.25,0.11,1.73,0.32c0.48,0.21,0.84,0.52,1.1,0.91c0.26,0.4,0.38,0.89,0.38,1.48c0,0.86-0.28,1.52-0.85,2
				c-0.57,0.48-1.36,0.72-2.36,0.72h-2.72v3.71H449.69z M450.75,154.98h2.72c0.71,0,1.25-0.16,1.62-0.48
				c0.37-0.32,0.56-0.79,0.56-1.42c0-0.64-0.19-1.12-0.56-1.42c-0.37-0.3-0.91-0.46-1.62-0.46h-2.72V154.98z M455.67,159.51
				l-2.62-3.98l0.89-0.37l2.92,4.35H455.67z"/>
		</g>
		<path class="st0" d="M408.96,121.46c1.72,0.52,2.97,2.13,2.97,4.02c0,2.32-1.88,4.2-4.2,4.2h-79.81v33.6l79.81,0
			c20.88,0,37.81-16.93,37.81-37.81c0-16.97-11.19-31.34-26.59-36.11v0L364.5,70.69l0,0c-1.72-0.52-2.97-2.13-2.97-4.02
			c0-2.32,1.88-4.2,4.2-4.2l63.01,0v-33.6h-63.01c-20.88,0-37.81,16.93-37.81,37.81c0,16.97,11.19,31.34,26.59,36.11l0,0
			L408.96,121.46z"/>
	</g>
	<g>
		<g>
			<g>
				<path class="st1" d="M562.62,83.35c-0.81-1.32-1.9-2.28-3.26-2.88c-1.36-0.6-2.77-0.9-4.25-0.9c-1.09,0-2.15,0.14-3.2,0.41
					c-1.05,0.27-1.99,0.68-2.82,1.22c-0.83,0.54-1.5,1.26-2.01,2.15s-0.76,1.94-0.76,3.14c0,0.93,0.15,1.76,0.44,2.47
					s0.77,1.37,1.43,1.95c0.66,0.58,1.55,1.13,2.68,1.63c1.12,0.5,2.5,1.01,4.13,1.51c1.59,0.5,3.13,1.05,4.62,1.63
					c1.49,0.58,2.81,1.32,3.96,2.21c1.14,0.89,2.05,2.01,2.73,3.35c0.68,1.34,1.02,3.02,1.02,5.03c0,2.06-0.41,3.84-1.22,5.35
					c-0.81,1.51-1.89,2.76-3.23,3.75c-1.34,0.99-2.88,1.73-4.62,2.21c-1.75,0.49-3.55,0.73-5.41,0.73c-1.2,0-2.4-0.11-3.61-0.32
					c-1.2-0.21-2.36-0.54-3.46-0.99c-1.11-0.45-2.14-1.03-3.11-1.75c-0.97-0.72-1.8-1.6-2.5-2.65l4.19-3.43
					c0.89,1.51,2.13,2.66,3.72,3.43c1.59,0.78,3.28,1.16,5.06,1.16c1.05,0,2.1-0.16,3.17-0.47c1.07-0.31,2.03-0.77,2.88-1.37
					c0.85-0.6,1.55-1.35,2.09-2.24c0.54-0.89,0.81-1.92,0.81-3.08c0-1.28-0.21-2.32-0.64-3.11s-1.09-1.48-1.98-2.07
					c-0.89-0.58-2.02-1.11-3.37-1.57c-1.36-0.47-2.95-1.01-4.77-1.63c-1.47-0.47-2.83-1-4.07-1.6c-1.24-0.6-2.32-1.34-3.23-2.21
					c-0.91-0.87-1.63-1.92-2.15-3.14c-0.52-1.22-0.78-2.68-0.78-4.39c0-1.98,0.39-3.7,1.16-5.18c0.77-1.47,1.82-2.71,3.14-3.69
					c1.32-0.99,2.81-1.74,4.48-2.24c1.67-0.5,3.41-0.76,5.24-0.76c2.33,0,4.45,0.36,6.37,1.08c1.92,0.72,3.64,1.97,5.15,3.75
					L562.62,83.35z"/>
				<path class="st1" d="M589.49,93.88h-8.03v13.61c0,0.89,0.02,1.72,0.06,2.47c0.04,0.76,0.19,1.42,0.47,1.98
					c0.27,0.56,0.68,1.01,1.22,1.34c0.54,0.33,1.32,0.49,2.33,0.49c0.66,0,1.34-0.08,2.04-0.23c0.7-0.16,1.36-0.39,1.98-0.7
					l0.17,4.13c-0.78,0.35-1.64,0.6-2.59,0.76c-0.95,0.15-1.85,0.23-2.71,0.23c-1.63,0-2.93-0.21-3.9-0.64
					c-0.97-0.43-1.73-1.03-2.27-1.8c-0.54-0.77-0.9-1.73-1.08-2.88c-0.17-1.14-0.26-2.41-0.26-3.81V93.88h-5.93v-3.84h5.93v-7.74
					h4.54v7.74h8.03V93.88z"/>
				<path class="st1" d="M594.73,93.53c1.4-1.43,3.05-2.49,4.97-3.17c1.92-0.68,3.87-1.02,5.85-1.02c4.03,0,6.94,0.95,8.73,2.85
					c1.78,1.9,2.68,4.79,2.68,8.67v11.69c0,0.78,0.04,1.58,0.12,2.41c0.08,0.83,0.17,1.6,0.29,2.3H613
					c-0.16-0.62-0.24-1.31-0.26-2.07c-0.02-0.76-0.03-1.43-0.03-2.01h-0.12c-0.89,1.4-2.09,2.54-3.58,3.43
					c-1.49,0.89-3.29,1.34-5.38,1.34c-1.4,0-2.7-0.17-3.93-0.52c-1.22-0.35-2.29-0.86-3.2-1.54c-0.91-0.68-1.64-1.52-2.18-2.53
					c-0.54-1.01-0.81-2.17-0.81-3.49c0-2.25,0.58-4.01,1.74-5.29c1.16-1.28,2.61-2.23,4.33-2.85c1.72-0.62,3.59-1.01,5.58-1.16
					c2-0.16,3.83-0.23,5.5-0.23h1.74v-0.82c0-1.98-0.59-3.47-1.77-4.48c-1.18-1.01-2.84-1.51-4.97-1.51c-1.47,0-2.92,0.24-4.33,0.73
					c-1.42,0.49-2.67,1.23-3.75,2.24L594.73,93.53z M607.88,104.18c-2.91,0-5.22,0.41-6.92,1.22c-1.71,0.81-2.56,2.15-2.56,4.01
					c0,1.71,0.57,2.92,1.72,3.64c1.14,0.72,2.57,1.08,4.28,1.08c1.32,0,2.47-0.22,3.46-0.67c0.99-0.45,1.81-1.04,2.47-1.77
					c0.66-0.74,1.16-1.6,1.51-2.59c0.35-0.99,0.54-2.05,0.58-3.17v-1.74H607.88z"/>
				<path class="st1" d="M625.27,96.5c0-1.24-0.04-2.4-0.12-3.49c-0.08-1.08-0.12-2.07-0.12-2.97h4.3c0,0.74,0.02,1.47,0.06,2.21
					c0.04,0.74,0.06,1.49,0.06,2.27h0.12c0.31-0.66,0.75-1.3,1.31-1.92c0.56-0.62,1.23-1.17,2.01-1.66
					c0.78-0.48,1.65-0.87,2.62-1.16c0.97-0.29,2.02-0.44,3.14-0.44c0.31,0,0.62,0.02,0.93,0.06c0.31,0.04,0.62,0.12,0.93,0.23
					l-0.29,4.6c-0.78-0.23-1.59-0.35-2.44-0.35c-2.79,0-4.82,0.9-6.08,2.71c-1.26,1.8-1.89,4.28-1.89,7.42v13.26h-4.54V96.5z"/>
				<path class="st1" d="M660.64,93.88h-8.03v13.61c0,0.89,0.02,1.72,0.06,2.47c0.04,0.76,0.19,1.42,0.47,1.98
					c0.27,0.56,0.68,1.01,1.22,1.34c0.54,0.33,1.32,0.49,2.33,0.49c0.66,0,1.34-0.08,2.04-0.23c0.7-0.16,1.36-0.39,1.98-0.7
					l0.17,4.13c-0.78,0.35-1.64,0.6-2.59,0.76c-0.95,0.15-1.85,0.23-2.71,0.23c-1.63,0-2.93-0.21-3.9-0.64
					c-0.97-0.43-1.73-1.03-2.27-1.8c-0.54-0.77-0.9-1.73-1.08-2.88c-0.17-1.14-0.26-2.41-0.26-3.81V93.88h-5.93v-3.84h5.93v-7.74
					h4.54v7.74h8.03V93.88z"/>
				<path class="st1" d="M714.1,101.56c0,2.25-0.28,4.38-0.84,6.4c-0.56,2.02-1.46,3.79-2.68,5.32c-1.22,1.53-2.82,2.75-4.8,3.67
					c-1.98,0.91-4.38,1.37-7.21,1.37c-2.83,0-5.24-0.46-7.21-1.37c-1.98-0.91-3.58-2.13-4.8-3.67c-1.22-1.53-2.12-3.31-2.68-5.32
					c-0.56-2.02-0.84-4.15-0.84-6.4V76.08h4.89v24.78c0,1.67,0.17,3.28,0.52,4.83c0.35,1.55,0.93,2.93,1.74,4.13
					c0.82,1.2,1.9,2.16,3.26,2.88c1.36,0.72,3.06,1.08,5.12,1.08s3.76-0.36,5.12-1.08c1.36-0.72,2.44-1.68,3.26-2.88
					c0.82-1.2,1.4-2.58,1.75-4.13c0.35-1.55,0.52-3.16,0.52-4.83V76.08h4.89V101.56z"/>
				<path class="st1" d="M723.12,90.04h4.54V94h0.12c1.24-1.47,2.68-2.62,4.33-3.43c1.65-0.82,3.46-1.22,5.44-1.22
					c2.13,0,4.08,0.36,5.85,1.08c1.76,0.72,3.27,1.72,4.51,3c1.24,1.28,2.21,2.79,2.91,4.54c0.7,1.74,1.05,3.65,1.05,5.7
					c0,2.06-0.35,3.96-1.05,5.7c-0.7,1.74-1.66,3.26-2.88,4.54c-1.22,1.28-2.67,2.28-4.33,3c-1.67,0.72-3.45,1.08-5.35,1.08
					c-2.44,0-4.59-0.53-6.43-1.6c-1.84-1.07-3.19-2.38-4.04-3.93h-0.12v18.09h-4.54V90.04z M727.66,103.66
					c0,1.44,0.22,2.76,0.67,3.98c0.45,1.22,1.1,2.29,1.95,3.2c0.85,0.91,1.87,1.63,3.06,2.15c1.18,0.52,2.51,0.78,3.98,0.78
					c1.47,0,2.8-0.26,3.98-0.78c1.18-0.52,2.2-1.24,3.05-2.15c0.85-0.91,1.5-1.98,1.95-3.2c0.44-1.22,0.67-2.55,0.67-3.98
					c0-1.43-0.22-2.76-0.67-3.98c-0.45-1.22-1.1-2.29-1.95-3.2c-0.85-0.91-1.87-1.63-3.05-2.15c-1.18-0.52-2.51-0.78-3.98-0.78
					c-1.47,0-2.8,0.26-3.98,0.78c-1.18,0.52-2.2,1.24-3.06,2.15c-0.85,0.91-1.5,1.98-1.95,3.2
					C727.88,100.89,727.66,102.22,727.66,103.66z"/>
				<path class="st1" d="M775.89,76.08h4.89v36.65h18.85v4.54h-23.74V76.08z"/>
				<path class="st1" d="M803.81,93.53c1.4-1.43,3.05-2.49,4.97-3.17c1.92-0.68,3.87-1.02,5.85-1.02c4.03,0,6.94,0.95,8.73,2.85
					c1.78,1.9,2.68,4.79,2.68,8.67v11.69c0,0.78,0.04,1.58,0.12,2.41c0.08,0.83,0.17,1.6,0.29,2.3h-4.36
					c-0.16-0.62-0.24-1.31-0.26-2.07c-0.02-0.76-0.03-1.43-0.03-2.01h-0.12c-0.89,1.4-2.09,2.54-3.58,3.43
					c-1.49,0.89-3.29,1.34-5.38,1.34c-1.4,0-2.7-0.17-3.93-0.52c-1.22-0.35-2.29-0.86-3.2-1.54c-0.91-0.68-1.64-1.52-2.18-2.53
					c-0.54-1.01-0.81-2.17-0.81-3.49c0-2.25,0.58-4.01,1.74-5.29c1.16-1.28,2.61-2.23,4.33-2.85c1.72-0.62,3.59-1.01,5.58-1.16
					c2-0.16,3.83-0.23,5.5-0.23h1.74v-0.82c0-1.98-0.59-3.47-1.77-4.48c-1.18-1.01-2.84-1.51-4.97-1.51c-1.47,0-2.92,0.24-4.33,0.73
					c-1.42,0.49-2.67,1.23-3.75,2.24L803.81,93.53z M816.96,104.18c-2.91,0-5.22,0.41-6.92,1.22c-1.71,0.81-2.56,2.15-2.56,4.01
					c0,1.71,0.57,2.92,1.72,3.64c1.14,0.72,2.57,1.08,4.28,1.08c1.32,0,2.47-0.22,3.46-0.67c0.99-0.45,1.81-1.04,2.47-1.77
					c0.66-0.74,1.16-1.6,1.51-2.59c0.35-0.99,0.54-2.05,0.58-3.17v-1.74H816.96z"/>
				<path class="st1" d="M834.12,73.29h4.54V94h0.12c1.24-1.47,2.68-2.62,4.33-3.43c1.65-0.82,3.46-1.22,5.44-1.22
					c2.13,0,4.08,0.36,5.85,1.08c1.76,0.72,3.27,1.72,4.51,3c1.24,1.28,2.21,2.79,2.91,4.54c0.7,1.74,1.05,3.65,1.05,5.7
					c0,2.06-0.35,3.96-1.05,5.7c-0.7,1.74-1.66,3.26-2.88,4.54c-1.22,1.28-2.67,2.28-4.33,3c-1.67,0.72-3.45,1.08-5.35,1.08
					c-2.44,0-4.59-0.53-6.43-1.6s-3.19-2.38-4.04-3.93h-0.12v4.83h-4.54V73.29z M838.66,103.66c0,1.44,0.22,2.76,0.67,3.98
					c0.45,1.22,1.1,2.29,1.95,3.2c0.85,0.91,1.87,1.63,3.06,2.15c1.18,0.52,2.51,0.78,3.98,0.78c1.47,0,2.8-0.26,3.98-0.78
					c1.18-0.52,2.2-1.24,3.05-2.15c0.85-0.91,1.5-1.98,1.95-3.2c0.44-1.22,0.67-2.55,0.67-3.98c0-1.43-0.22-2.76-0.67-3.98
					c-0.45-1.22-1.1-2.29-1.95-3.2c-0.85-0.91-1.87-1.63-3.05-2.15c-1.18-0.52-2.51-0.78-3.98-0.78c-1.47,0-2.8,0.26-3.98,0.78
					c-1.18,0.52-2.2,1.24-3.06,2.15c-0.85,0.91-1.5,1.98-1.95,3.2C838.88,100.89,838.66,102.22,838.66,103.66z"/>
			</g>
		</g>
		<g>
			<path class="st1" d="M504.34,49.87c0-2.32,1.88-4.2,4.2-4.2h29.4v-16.8h-29.4c-11.6,0-21,9.4-21,21v29.4h16.8V49.87z"/>
			<path class="st1" d="M899.2,142.28c0,2.32-1.88,4.2-4.2,4.2h-29.4v16.8H895c11.6,0,21-9.4,21-21v-29.4h-16.8V142.28z"/>
		</g>
	</g>
</g>
</svg>
