<?xml version="1.0" encoding="utf-8"?>
<!-- Generator: Adobe Illustrator 27.0.0, SVG Export Plug-In . SVG Version: 6.00 Build 0)  -->
<svg version="1.1" xmlns="http://www.w3.org/2000/svg" xmlns:xlink="http://www.w3.org/1999/xlink" x="0px" y="0px"
	 viewBox="0 0 930 930" style="enable-background:new 0 0 930 930;" xml:space="preserve">
<style type="text/css">
	.st0{fill:#E8E8E8;}
	.st1{fill:#D4D4D4;}
	.st2{fill:#9BCFCF;}
	.st3{fill:#C2BECF;}
	.st4{display:none;}
	.st5{display:inline;fill:none;stroke:#545454;stroke-miterlimit:10;}
	.st6{fill:#FF0000;}
	.st7{fill:#8379A3;}
	.st8{fill:#878787;}
	.st9{font-family:'AvenirNext-Bold';}
	.st10{font-size:19.8134px;}
	.st11{display:inline;}
	.st12{fill:#FFFFFF;}
	.st13{fill:#333333;}
</style>
<g id="Capa_1">
	<g id="Capa_1_00000016784878999243185480000008876581158480747420_">
		<g id="Capa_2_00000057147696048623365000000015372648413035714200_">
			<g>
				<path class="st0" d="M763.8,25.5H26.5v878h787.7l90.3-106.6V144.4L763.8,25.5z M614.5,613.5h-292v-173h292V613.5z M614.5,397.5
					h-292v-63h292V397.5z"/>
			</g>
			<path class="st1" d="M586.5,124.5h-217c-11,0-20-8.9-20-20v-62h237V124.5z"/>
			<path class="st1" d="M188.5,124.5h-92c-11.1,0-20-8.9-20-20v-62h112V124.5z"/>
			<path class="st2" d="M309,700h-60c-11.1,0-20-9-20-20v-16h80V700z"/>
			<path class="st1" d="M886.5,605.5h-178c-11,0-20-9-20-20v-92h198V605.5z"/>
			<path class="st1" d="M197.5,124.5h92c11,0,20-8.9,20-20v-62h-112V124.5z"/>
			<path class="st2" d="M805.5,359.7v79.8c0,11,9,20,20,20h62v-99.8H805.5L805.5,359.7z"/>
			<polygon class="st2" points="840.5,124.5 623.5,124.5 623.5,42.5 737.5,42.5 			"/>
			<rect x="671.5" y="144.5" class="st2" width="215" height="168"/>
			<polygon class="st2" points="813.9,884.5 675.5,884.5 675.5,633.5 886.5,633.5 886.5,799.7 			"/>
			<rect x="322.5" y="786.5" class="st2" width="292" height="98"/>
			<rect x="46.5" y="786.5" class="st1" width="257" height="98"/>
			<rect x="322.5" y="622.5" class="st1" width="86" height="78"/>
			<rect x="425.5" y="622.5" class="st1" width="86" height="78"/>
			<rect x="528.5" y="622.5" class="st1" width="86" height="78"/>
			<rect x="234.5" y="258.5" class="st1" width="53" height="42"/>
			<rect x="294.5" y="258.5" class="st1" width="53" height="42"/>
			<rect x="354.5" y="258.5" class="st1" width="53" height="42"/>
			<rect x="468.5" y="258.5" class="st1" width="67" height="42"/>
			<rect x="544.5" y="258.5" class="st1" width="67" height="42"/>
			<rect x="234" y="319.5" class="st1" width="78.5" height="61"/>
			<ellipse class="st1" cx="424.5" cy="193.5" rx="49" ry="42"/>
			<rect x="85.5" y="573.9" class="st2" width="117" height="185.1"/>
			<rect x="85.5" y="359" class="st2" width="117" height="189.6"/>
			<rect x="85.5" y="144" class="st2" width="117" height="189.6"/>
			<rect x="397" y="436" class="st0" width="138" height="98"/>
			<rect x="408" y="451" class="st3" width="117" height="76"/>
			<rect x="231" y="451" class="st1" width="81" height="76"/>
		</g>
		<g id="Capa_1_00000041980170058004857720000010810330252862061470_" class="st4">
		</g>
		<g id="Capa_3" class="st4">
			<path class="st5" d="M763.8,15.5H16.5v898h797.7l100.3-116.6V144.4L763.8,15.5z M541.1,450.5h63.4v153h-272v-153h58"/>
			<path class="st5" d="M887.5,468.5c0,0-35,0-60,0s-35.4-16-35.4-28s0-15,0-30.9s2.5-41.1-28.6-41.1s-44,0-44,0v79.1l-40,0.9V377
				h15"/>
			<line class="st5" x1="668.5" y1="341.5" x2="886.5" y2="341.5"/>
			<path class="st5" d="M887,613.5H700.5c-11,0-20-9-20-20V546"/>
			<circle class="st5" cx="760.5" cy="461.5" r="14"/>
			<line class="st5" x1="798.5" y1="901.5" x2="891.5" y2="792.5"/>
			<line class="st5" x1="765.5" y1="901.5" x2="891.5" y2="754.5"/>
			<line class="st5" x1="733.5" y1="901.5" x2="890.5" y2="718.5"/>
			<rect x="342.5" y="837.5" class="st5" width="249" height="51"/>
			<polyline class="st5" points="604.5,706 620.5,706 620.5,428.8 607.5,428.8 			"/>
			<polyline class="st5" points="342.5,706 315,706 315,655.5 223,655.5 223.5,428.8 234.5,428.8 			"/>
			<rect x="349.5" y="341" class="st5" width="46" height="50.5"/>
			<rect x="412.5" y="341" class="st5" width="46" height="50.5"/>
			<rect x="475.5" y="341" class="st5" width="46" height="50.5"/>
			<rect x="538.5" y="341" class="st5" width="46" height="50.5"/>
			<polyline class="st5" points="313,888.5 313,778.7 328.1,778.7 			"/>
			<polyline class="st5" points="620.2,888.5 620.2,778.7 605,778.7 			"/>
			<polyline class="st5" points="234.5,402.6 223,402.6 223,374.8 			"/>
			<polyline class="st5" points="233.5,250.8 222,250.8 222,317.5 			"/>
			<polyline class="st5" points="609,250.8 620.5,250.8 620.5,402.5 609,402.5 			"/>
			<line class="st5" x1="840.5" y1="133" x2="566" y2="133"/>
			<path class="st5" d="M508.5,133h-147c-11,0-20-8.9-20-20V41"/>
			<polyline class="st5" points="46.7,78.5 46.7,312.2 71.8,312.2 71.8,613.5 46.5,613.5 			"/>
		</g>
		<path class="st6" d="M1324.3,493.3h-60c-11,0-20-9-20-20v-16h80V493.3z"/>
		<g>
			<path class="st7" d="M435.2,476.4c1.9,0,3.4-1.6,3.4-3.5s-1.5-3.5-3.4-3.5s-3.4,1.6-3.4,3.5S433.3,476.4,435.2,476.4z"/>
			<path class="st7" d="M444.7,490.3l-3-11.2c0-0.3-0.1-0.5-0.2-0.7c-0.2-0.7-0.7-1.2-1.3-1.2l-5.1,0.1l-5.1-0.1
				c-0.6,0-1.1,0.5-1.3,1.2c-0.1,0.2-0.2,0.4-0.2,0.7l-3,11.7c-0.1,0.9,0.4,1.7,1.1,1.8c0.7,0.1,1.4-0.5,1.5-1.4l2.6-8l-3.4,16.4
				h3.8v9.8c0,0.9,0.8,1.6,1.8,1.6s1.8-0.7,1.8-1.6v-9.8h0.6v9.8c0,0.9,0.8,1.6,1.8,1.6s1.8-0.7,1.8-1.6v-9.8h3.8l-3.4-16.7l2.6,7.8
				c0.1,0.9,0.8,1.5,1.5,1.4C444.3,492,444.8,491.2,444.7,490.3z"/>
		</g>
		<path class="st7" d="M498.6,472.9c0-2,1.5-3.5,3.4-3.5s3.4,1.6,3.4,3.5c0,2-1.5,3.5-3.4,3.5S498.6,474.9,498.6,472.9z
			 M513.2,490.5l-3.5-11.3c0-0.3-0.1-0.5-0.3-0.7c-0.2-0.7-0.8-1.2-1.5-1.2l-5.9,0.1l-5.9-0.1c-0.7,0-1.3,0.5-1.5,1.2
			c-0.1,0.2-0.2,0.4-0.3,0.7l-3.5,11.8c-0.1,0.9,0.4,1.7,1.3,1.8c0.9,0.1,1.7-0.5,1.8-1.4l3.3-10.6h0.1V492c0,0.1,0,0.2,0.1,0.3
			v17.5c0,0.9,0.9,1.6,2.1,1.6s2.1-0.7,2.1-1.6v-16c0.1,0,0.2,0,0.3,0l0,0l0,0l0,0l0,0l0,0l0,0c0.1,0,0.2,0,0.3,0v16
			c0,0.9,0.9,1.6,2.1,1.6s2.1-0.7,2.1-1.6v-17.5c0-0.1,0.1-0.2,0.1-0.3v-11.3h0.1l3.3,10.1c0.1,0.9,0.9,1.5,1.8,1.4
			C512.7,492.2,513.3,491.4,513.2,490.5z"/>
		<g>
			<text transform="matrix(1 0 0 1 413.5 420.9482)" class="st8 st9 st10">Elevadores</text>
		</g>
	</g>
</g>
<g id="Capa_2" class="st4">
	<g id="Capa_2_00000062911808399556676150000013301322338539005852_" class="st11">
		<rect x="115.2" y="600.2" class="st12" width="53" height="130.2"/>
		<rect x="115.2" y="389" class="st12" width="53" height="130.2"/>
		<rect x="115.2" y="179.3" class="st12" width="53" height="130.2"/>
		<rect x="645.9" y="55.8" class="st12" width="91.7" height="53"/>
		<rect x="818.7" y="389.5" class="st12" width="59.4" height="41.2"/>
		<rect x="729.4" y="208.9" class="st12" width="117.1" height="38.6"/>
		<rect x="729.4" y="724.6" class="st12" width="117.1" height="62"/>
		<rect x="241.9" y="707.4" class="st12" width="61.6" height="34"/>
		<rect x="406.4" y="800.4" class="st12" width="129.1" height="36.8"/>
		<text transform="matrix(6.123234e-17 -1 1 6.123234e-17 136.11 300.5)" class="st13 st9 st10">Laboratorio</text>
		<text transform="matrix(6.123234e-17 -1 1 6.123234e-17 159.8901 300.5)" class="st13 st9 st10">Génesis 1</text>
		<text transform="matrix(1 0 0 1 654.6858 77.5002)" class="st13 st9 st10">Esquina</text>
		<text transform="matrix(1 0 0 1 654.6858 101.3002)" class="st13 st9 st10">Alfa</text>
		<text transform="matrix(1 0 0 1 736.1816 235.5002)" class="st13 st9 st10">Punto ATP</text>
		<text transform="matrix(1 0 0 1 739.3806 749.1971)" class="st13 st9 st10">Rincón</text>
		<text transform="matrix(1 0 0 1 739.3806 772.9971)" class="st13 st9 st10">Micelium</text>
		<text transform="matrix(1 0 0 1 412.6645 825.6923)" class="st13 st9 st10">Visionarium</text>
		<text transform="matrix(1 0 0 1 246.421 729.813)" class="st13 st9 st10">300k</text>
		<text transform="matrix(1 0 0 1 823.9396 415.9812)" class="st13 st9 st10">Nido</text>
		<text transform="matrix(6.123234e-17 -1 1 6.123234e-17 136.11 510.0527)" class="st13 st9 st10">Laboratorio</text>
		<text transform="matrix(6.123234e-17 -1 1 6.123234e-17 159.8901 510.0527)" class="st13 st9 st10">Génesis 2</text>
		<text transform="matrix(6.123234e-17 -1 1 6.123234e-17 136.11 719.6055)" class="st13 st9 st10">Laboratorio</text>
		<text transform="matrix(6.123234e-17 -1 1 6.123234e-17 159.8901 719.6055)" class="st13 st9 st10">Génesis 3</text>
	</g>
</g>
</svg>
