<?xml version="1.0" encoding="utf-8"?>
<!-- Generator: Adobe Illustrator 26.5.0, SVG Export Plug-In . SVG Version: 6.00 Build 0)  -->
<svg version="1.1" xmlns="http://www.w3.org/2000/svg" xmlns:xlink="http://www.w3.org/1999/xlink" x="0px" y="0px"
	 viewBox="0 0 930 930" style="enable-background:new 0 0 930 930;" xml:space="preserve">
<style type="text/css">
	.st0{display:none;}
	.st1{display:inline;}
	.st2{fill:none;stroke:#545454;stroke-miterlimit:10;}
	.st3{font-family:'AvenirNext-Bold';}
	.st4{font-size:60px;}
	.st5{fill:#FFFFFF;}
</style>
<g id="Capa_1" class="st0">
	<g id="Capa_1_00000098184544034034257030000007755232459615406976_">
		
			<image style="display:inline;overflow:visible;opacity:0.5;enable-background:new    ;" width="1440" height="1430" xlink:href="DEA2DE4058442784.png"  transform="matrix(0.6622 0 0 0.6622 501.6014 56)">
		</image>
	</g>
	<g id="Capa_3" class="st1">
		<path class="st2" d="M763.8,15.5H16.5v898h797.7l100.3-116.6V144.4L763.8,15.5z M541.1,450.5h63.4v153h-272v-153h58"/>
		<path class="st2" d="M887.5,468.5c0,0-35,0-60,0s-35.4-16-35.4-28s0-15,0-30.9s2.5-41.1-28.6-41.1s-44,0-44,0v79.1l-40,0.9V377h15
			"/>
		<line class="st2" x1="668.5" y1="341.5" x2="886.5" y2="341.5"/>
		<path class="st2" d="M887,613.5H700.5c-11,0-20-9-20-20V546"/>
		<circle class="st2" cx="760.5" cy="461.5" r="14"/>
		<line class="st2" x1="798.5" y1="901.5" x2="891.5" y2="792.5"/>
		<line class="st2" x1="765.5" y1="901.5" x2="891.5" y2="754.5"/>
		<line class="st2" x1="733.5" y1="901.5" x2="890.5" y2="718.5"/>
		<rect x="342.5" y="837.5" class="st2" width="249" height="51"/>
		<polyline class="st2" points="604.5,706 620.5,706 620.5,428.8 607.5,428.8 		"/>
		<polyline class="st2" points="342.5,706 315,706 315,655.5 223,655.5 223.5,428.8 234.5,428.8 		"/>
		<rect x="349.5" y="341" class="st2" width="46" height="50.5"/>
		<rect x="412.5" y="341" class="st2" width="46" height="50.5"/>
		<rect x="475.5" y="341" class="st2" width="46" height="50.5"/>
		<rect x="538.5" y="341" class="st2" width="46" height="50.5"/>
		<polyline class="st2" points="313,888.5 313,778.7 328.1,778.7 		"/>
		<polyline class="st2" points="620.2,888.5 620.2,778.7 605,778.7 		"/>
		<polyline class="st2" points="234.5,402.6 223,402.6 223,374.8 		"/>
		<polyline class="st2" points="233.5,250.8 222,250.8 222,317.5 		"/>
		<polyline class="st2" points="609,250.8 620.5,250.8 620.5,402.5 609,402.5 		"/>
		<line class="st2" x1="840.5" y1="133" x2="566" y2="133"/>
		<path class="st2" d="M508.5,133h-147c-11,0-20-8.9-20-20V41"/>
		<polyline class="st2" points="46.7,78.5 46.7,312.2 71.8,312.2 71.8,613.5 46.5,613.5 		"/>
	</g>
</g>
<g id="Capa_2">
	
		<text transform="matrix(6.123234e-17 -1 1 6.123234e-17 -120.5635 258.8838)" class="st3" style="fill:#333333; font-size:19.8134px;">Laboratorio</text>
	
		<text transform="matrix(6.123234e-17 -1 1 6.123234e-17 -96.7834 258.8838)" class="st3" style="fill:#333333; font-size:19.8134px;">Génesis 1</text>
	<text transform="matrix(1 0 0 1 136.0184 259.207)" class="st3 st4">I</text>
	<text transform="matrix(1 0 0 1 816.5591 432.207)" class="st3 st4">VI</text>
	<text transform="matrix(1 0 0 1 745.0189 783.207)" class="st5 st3 st4">VII</text>
	<text transform="matrix(1 0 0 1 415.4794 860.207)" class="st3 st4">VIII</text>
	<text transform="matrix(1 0 0 1 238.9291 754.207)" class="st3 st4">IX</text>
	<text transform="matrix(1 0 0 1 764.0985 258.207)" class="st3 st4">V</text>
	<text transform="matrix(1 0 0 1 679.5591 107.207)" class="st5 st3 st4">IV</text>
	<text transform="matrix(1 0 0 1 126.4791 478.207)" class="st3 st4">II</text>
	<text transform="matrix(1 0 0 1 116.9396 692.207)" class="st5 st3 st4">III</text>
</g>
</svg>
