<?xml version="1.0" encoding="utf-8"?>
<!-- Generator: Adobe Illustrator 26.5.0, SVG Export Plug-In . SVG Version: 6.00 Build 0)  -->
<svg version="1.1" xmlns="http://www.w3.org/2000/svg" xmlns:xlink="http://www.w3.org/1999/xlink" x="0px" y="0px"
	 viewBox="0 0 930 930" style="enable-background:new 0 0 930 930;" xml:space="preserve">
<style type="text/css">
	.st0{display:none;}
	.st1{display:inline;}
	.st2{fill:#E8E8E8;}
	.st3{fill:#D4D4D4;}
	.st4{fill:#BECFCF;}
	.st5{fill:#C2BECF;}
	.st6{fill:none;stroke:#545454;stroke-miterlimit:10;}
	.st7{display:inline;fill:#333333;}
	.st8{font-family:'AvenirNext-Bold';}
	.st9{font-size:19.8134px;}
	.st10{fill:#FFFFFF;}
	.st11{fill:#333333;}
	.st12{enable-background:new    ;}
</style>
<g id="Capa_1" class="st0">
	<g id="Capa_1_00000051385618903652623180000008205255720484344487_">
		<g id="Capa_2_00000057147696048623365000000015372648413035714200_" class="st1">
			<g>
				<path class="st2" d="M763.8,25.5H26.5v878h787.7l90.3-106.6V144.4L763.8,25.5z M614.5,613.5h-292v-173h292V613.5z M614.5,397.5
					h-292v-63h292V397.5z"/>
			</g>
			<path class="st3" d="M586.5,124.5h-217c-11,0-20-8.9-20-20v-62h237V124.5z"/>
			<path class="st3" d="M188.5,124.5h-92c-11.1,0-20-8.9-20-20v-62h112V124.5z"/>
			<path class="st4" d="M309,700h-60c-11.1,0-20-9-20-20v-16h80V700z"/>
			<path class="st3" d="M886.5,605.5h-178c-11,0-20-9-20-20v-92h198V605.5z"/>
			<path class="st3" d="M197.5,124.5h92c11,0,20-8.9,20-20v-62h-112V124.5z"/>
			<path class="st4" d="M805.5,359.7v79.8c0,11,9,20,20,20h62v-99.8H805.5L805.5,359.7z"/>
			<polygon class="st4" points="840.5,124.5 623.5,124.5 623.5,42.5 737.5,42.5 			"/>
			<rect x="671.5" y="144.5" class="st4" width="215" height="168"/>
			<polygon class="st4" points="813.9,884.5 675.5,884.5 675.5,633.5 886.5,633.5 886.5,799.7 			"/>
			<rect x="322.5" y="786.5" class="st4" width="292" height="98"/>
			<rect x="46.5" y="786.5" class="st3" width="257" height="98"/>
			<rect x="322.5" y="622.5" class="st3" width="86" height="78"/>
			<rect x="425.5" y="622.5" class="st3" width="86" height="78"/>
			<rect x="528.5" y="622.5" class="st3" width="86" height="78"/>
			<rect x="234.5" y="258.5" class="st3" width="53" height="42"/>
			<rect x="294.5" y="258.5" class="st3" width="53" height="42"/>
			<rect x="354.5" y="258.5" class="st3" width="53" height="42"/>
			<rect x="468.5" y="258.5" class="st3" width="67" height="42"/>
			<rect x="544.5" y="258.5" class="st3" width="67" height="42"/>
			<rect x="234" y="319.5" class="st3" width="78.5" height="61"/>
			<ellipse class="st3" cx="424.5" cy="193.5" rx="49" ry="42"/>
			<rect x="85.5" y="573.9" class="st4" width="117" height="185.1"/>
			<rect x="85.5" y="359" class="st4" width="117" height="189.6"/>
			<rect x="85.5" y="144" class="st4" width="117" height="189.6"/>
			<rect x="397" y="436" class="st2" width="138" height="98"/>
			<rect x="408" y="451" class="st5" width="117" height="76"/>
			<rect x="231" y="451" class="st5" width="81" height="76"/>
		</g>
		<g id="Capa_1_00000041980170058004857720000010810330252862061470_" class="st1">
			
				<image style="overflow:visible;opacity:0.5;enable-background:new    ;" width="1444" height="1434" xlink:href="68C2E9E746F9FFB4.png"  transform="matrix(0.6604 0 0 0.6604 -19.3894 -19)">
			</image>
		</g>
		<g id="Capa_3" class="st1">
			<path class="st6" d="M763.8,15.5H16.5v898h797.7l100.3-116.6V144.4L763.8,15.5z M541.1,450.5h63.4v153h-272v-153h58"/>
			<path class="st6" d="M887.5,468.5c0,0-35,0-60,0s-35.4-16-35.4-28s0-15,0-30.9s2.5-41.1-28.6-41.1s-44,0-44,0v79.1l-40,0.9V377
				h15"/>
			<line class="st6" x1="668.5" y1="341.5" x2="886.5" y2="341.5"/>
			<path class="st6" d="M887,613.5H700.5c-11,0-20-9-20-20V546"/>
			<circle class="st6" cx="760.5" cy="461.5" r="14"/>
			<line class="st6" x1="798.5" y1="901.5" x2="891.5" y2="792.5"/>
			<line class="st6" x1="765.5" y1="901.5" x2="891.5" y2="754.5"/>
			<line class="st6" x1="733.5" y1="901.5" x2="890.5" y2="718.5"/>
			<rect x="342.5" y="837.5" class="st6" width="249" height="51"/>
			<polyline class="st6" points="604.5,706 620.5,706 620.5,428.8 607.5,428.8 			"/>
			<polyline class="st6" points="342.5,706 315,706 315,655.5 223,655.5 223.5,428.8 234.5,428.8 			"/>
			<rect x="349.5" y="341" class="st6" width="46" height="50.5"/>
			<rect x="412.5" y="341" class="st6" width="46" height="50.5"/>
			<rect x="475.5" y="341" class="st6" width="46" height="50.5"/>
			<rect x="538.5" y="341" class="st6" width="46" height="50.5"/>
			<polyline class="st6" points="313,888.5 313,778.7 328.1,778.7 			"/>
			<polyline class="st6" points="620.2,888.5 620.2,778.7 605,778.7 			"/>
			<polyline class="st6" points="234.5,402.6 223,402.6 223,374.8 			"/>
			<polyline class="st6" points="233.5,250.8 222,250.8 222,317.5 			"/>
			<polyline class="st6" points="609,250.8 620.5,250.8 620.5,402.5 609,402.5 			"/>
			<line class="st6" x1="840.5" y1="133" x2="566" y2="133"/>
			<path class="st6" d="M508.5,133h-147c-11,0-20-8.9-20-20V41"/>
			<polyline class="st6" points="46.7,78.5 46.7,312.2 71.8,312.2 71.8,613.5 46.5,613.5 			"/>
		</g>
	</g>
	<text transform="matrix(6.123234e-17 -1 1 6.123234e-17 136.11 300.5)" class="st7 st8 st9">Laboratorio</text>
	<text transform="matrix(6.123234e-17 -1 1 6.123234e-17 159.8901 300.5)" class="st7 st8 st9">Génesis 1</text>
	<text transform="matrix(1 0 0 1 654.6858 77.5002)" class="st7 st8 st9">Esquina</text>
	<text transform="matrix(1 0 0 1 654.6858 101.3002)" class="st7 st8 st9">Alfa</text>
	<text transform="matrix(1 0 0 1 736.1816 235.5002)" class="st7 st8 st9">Punto ATP</text>
	<text transform="matrix(1 0 0 1 739.3806 749.1971)" class="st7 st8 st9">Rincón</text>
	<text transform="matrix(1 0 0 1 739.3806 772.9971)" class="st7 st8 st9">Micelium</text>
	<text transform="matrix(1 0 0 1 412.6645 842.6923)" class="st7 st8 st9">Visionarium</text>
	<text transform="matrix(1 0 0 1 246.421 718.813)" class="st7 st8 st9">300k</text>
	<text transform="matrix(1 0 0 1 823.9396 415.9812)" class="st7 st8 st9">Nido</text>
	<text transform="matrix(6.123234e-17 -1 1 6.123234e-17 136.11 510.0527)" class="st7 st8 st9">Laboratorio</text>
	<text transform="matrix(6.123234e-17 -1 1 6.123234e-17 159.8901 510.0527)" class="st7 st8 st9">Génesis 2</text>
	<text transform="matrix(6.123234e-17 -1 1 6.123234e-17 136.11 719.6055)" class="st7 st8 st9">Laboratorio</text>
	<text transform="matrix(6.123234e-17 -1 1 6.123234e-17 159.8901 719.6055)" class="st7 st8 st9">Génesis 3</text>
</g>
<g id="Capa_2">
	<rect x="115.2" y="600.2" class="st10" width="53" height="130.2"/>
	<rect x="115.2" y="389" class="st10" width="53" height="130.2"/>
	<rect x="115.2" y="179.3" class="st10" width="53" height="130.2"/>
	
		<rect x="665.3" y="36.4" transform="matrix(-1.836970e-16 1 -1 -1.836970e-16 774.037 -609.5269)" class="st10" width="53" height="91.7"/>
	
		<rect x="827.9" y="380.4" transform="matrix(-1.836970e-16 1 -1 -1.836970e-16 1258.5459 -438.441)" class="st10" width="41.2" height="59.4"/>
	
		<rect x="758.6" y="169.7" transform="matrix(-1.836970e-16 1 -1 -1.836970e-16 1006.2263 -549.6547)" class="st10" width="38.6" height="117.1"/>
	
		<rect x="747" y="697" transform="matrix(-1.836970e-16 1 -1 -1.836970e-16 1533.4504 -22.4305)" class="st10" width="62" height="117.1"/>
	
		<rect x="255.7" y="693.7" transform="matrix(-1.836970e-16 1 -1 -1.836970e-16 997.1584 451.7179)" class="st10" width="34" height="61.6"/>
	
		<rect x="448.6" y="774.2" transform="matrix(-1.836970e-16 1 -1 -1.836970e-16 1305.7291 371.7886)" class="st10" width="36.8" height="129.1"/>
	<text transform="matrix(6.123234e-17 -1 1 6.123234e-17 136.11 300.5)" class="st11 st8 st9">Laboratorio</text>
	<text transform="matrix(6.123234e-17 -1 1 6.123234e-17 159.8901 300.5)" class="st11 st8 st9">Génesis 1</text>
	<text transform="matrix(1 0 0 1 654.6857 77.5002)" class="st12"><tspan x="0" y="0" class="st11 st8 st9">Esquina</tspan><tspan x="0" y="23.8" class="st11 st8 st9">Alfa</tspan></text>
	<text transform="matrix(1 0 0 1 726.1816 235.5002)" class="st11 st8 st9">Punto ATP</text>
	<text transform="matrix(1 0 0 1 729.3807 749.1971)" class="st12"><tspan x="0" y="0" class="st11 st8 st9">Rincón</tspan><tspan x="0" y="23.8" class="st11 st8 st9">Micelium</tspan></text>
	<text transform="matrix(1 0 0 1 408.6645 845.6923)" class="st11 st8 st9">Visionarium</text>
	<text transform="matrix(1 0 0 1 246.421 729.813)" class="st11 st8 st9">300k</text>
	<text transform="matrix(1 0 0 1 823.9396 415.9812)" class="st11 st8 st9">Nido</text>
	<text transform="matrix(6.123234e-17 -1 1 6.123234e-17 136.11 510.0527)" class="st11 st8 st9">Laboratorio</text>
	<text transform="matrix(6.123234e-17 -1 1 6.123234e-17 159.8901 510.0527)" class="st11 st8 st9">Génesis 2</text>
	<text transform="matrix(6.123234e-17 -1 1 6.123234e-17 136.11 719.6055)" class="st11 st8 st9">Laboratorio</text>
	<text transform="matrix(6.123234e-17 -1 1 6.123234e-17 159.8901 719.6055)" class="st11 st8 st9">Génesis 3</text>
</g>
</svg>
