<?xml version="1.0" encoding="utf-8"?>
<!-- Generator: Adobe Illustrator 27.0.0, SVG Export Plug-In . SVG Version: 6.00 Build 0)  -->
<svg version="1.1" id="Capa_1" xmlns="http://www.w3.org/2000/svg" xmlns:xlink="http://www.w3.org/1999/xlink" x="0px" y="0px"
	 viewBox="0 0 1107 640" style="enable-background:new 0 0 1107 640;" xml:space="preserve">
<style type="text/css">
	.st0{fill:#FFFFFF;}
	.st1{fill:#FFD00F;}
	.st2{fill:#5C10BB;}
</style>
<g>
	<path class="st0" d="M-12-14v667h1130V-14H-12z M164.75,378.74H95.54V101.9h69.21V378.74z M476.19,171.11H355.08
		c-9.56,0-17.3,7.75-17.3,17.3v190.33h-69.21V188.42c0-47.78,38.73-86.51,86.51-86.51h121.12V171.11z M631.92,378.74h-69.21V101.9
		h69.21V378.74z M900.1,378.74l-164.37,0v-69.21H900.1c4.78,0,8.65-3.87,8.65-8.65c0-3.9-2.58-7.2-6.12-8.28L790.5,254.14
		c-31.72-9.84-54.77-39.42-54.77-74.38c0-43,34.86-77.86,77.86-77.86h129.77v69.21l-129.77,0c-4.78,0-8.65,3.87-8.65,8.65
		c0,3.9,2.58,7.2,6.12,8.28L923.2,226.5v0c31.72,9.84,54.77,39.42,54.77,74.38C977.97,343.88,943.11,378.74,900.1,378.74z"/>
</g>
<g>
	<path class="st1" d="M159.04,440.48c-2.31-3.19-5.44-5.8-9.41-7.84c-3.96-2.03-8.42-3.05-13.37-3.05c-2.64,0-5.31,0.36-8,1.07
		c-2.7,0.72-5.14,1.87-7.34,3.47s-3.99,3.58-5.36,5.94c-1.38,2.37-2.06,5.2-2.06,8.5c0,3.19,0.63,5.86,1.9,8
		c1.26,2.14,2.97,3.96,5.12,5.45c2.14,1.48,4.67,2.75,7.59,3.8c2.91,1.05,6.02,2.12,9.32,3.22c3.96,1.21,7.98,2.59,12.05,4.12
		c4.07,1.54,7.76,3.58,11.06,6.11c3.3,2.53,6,5.69,8.09,9.49c2.09,3.8,3.14,8.61,3.14,14.44c0,6.05-1.13,11.3-3.38,15.76
		c-2.26,4.46-5.26,8.14-8.99,11.06c-3.74,2.92-8.06,5.09-12.96,6.52c-4.9,1.43-9.93,2.15-15.1,2.15c-7.37,0-14.5-1.43-21.37-4.29
		c-6.88-2.86-12.57-7.1-17.08-12.71l12.71-10.73c2.75,4.07,6.44,7.37,11.05,9.9c4.62,2.53,9.63,3.8,15.02,3.8
		c2.75,0,5.5-0.38,8.25-1.16c2.75-0.77,5.25-1.98,7.51-3.63c2.25-1.65,4.09-3.71,5.53-6.19c1.43-2.47,2.14-5.47,2.14-8.99
		c0-3.52-0.74-6.46-2.23-8.83c-1.48-2.36-3.49-4.37-6.02-6.02c-2.53-1.65-5.47-3.05-8.83-4.21c-3.36-1.15-6.9-2.34-10.64-3.55
		c-3.74-1.1-7.42-2.45-11.05-4.04c-3.63-1.59-6.88-3.63-9.74-6.11c-2.86-2.47-5.17-5.53-6.93-9.16c-1.76-3.63-2.64-8.14-2.64-13.53
		c0-5.83,1.18-10.83,3.55-15.02c2.36-4.18,5.44-7.64,9.24-10.4c3.79-2.75,8.09-4.76,12.87-6.02c4.79-1.26,9.6-1.9,14.44-1.9
		c6.82,0,13.2,1.21,19.14,3.63c5.94,2.42,10.73,5.67,14.36,9.74L159.04,440.48z"/>
	<path class="st1" d="M231.32,470.18h-20.79v40.64c0,4.72,0.88,8.09,2.64,10.12c1.76,2.03,4.57,3.04,8.42,3.04
		c1.43,0,2.97-0.15,4.62-0.45c1.65-0.3,3.14-0.76,4.46-1.36l0.49,12.71c-1.87,0.66-3.93,1.18-6.19,1.57
		c-2.25,0.38-4.59,0.58-7.01,0.58c-7.37,0-13.01-2.04-16.91-6.11c-3.91-4.07-5.86-10.17-5.86-18.32v-42.41h-15.02v-12.71h15.02
		v-22.44h15.35v22.44h20.79V470.18z"/>
	<path class="st1" d="M296.01,485.04c0-5.83-1.76-10.15-5.28-12.95s-8.2-4.21-14.02-4.21c-4.4,0-8.56,0.85-12.46,2.56
		c-3.91,1.71-7.18,3.88-9.82,6.52l-8.25-9.9c3.85-3.63,8.55-6.49,14.11-8.58c5.55-2.09,11.52-3.14,17.91-3.14
		c5.61,0,10.48,0.8,14.61,2.39c4.12,1.6,7.51,3.77,10.15,6.52c2.64,2.75,4.62,6,5.94,9.74c1.32,3.74,1.98,7.76,1.98,12.05v34.16
		c0,2.64,0.08,5.42,0.25,8.33c0.16,2.92,0.47,5.31,0.91,7.18h-14.03c-0.88-3.74-1.32-7.48-1.32-11.22h-0.49
		c-2.86,4.18-6.46,7.43-10.81,9.74c-4.35,2.31-9.49,3.47-15.43,3.47c-3.08,0-6.3-0.41-9.66-1.24c-3.36-0.82-6.41-2.17-9.16-4.04
		c-2.75-1.87-5.03-4.35-6.85-7.43c-1.81-3.08-2.72-6.88-2.72-11.39c0-5.94,1.59-10.64,4.79-14.11c3.19-3.47,7.37-6.11,12.54-7.92
		c5.17-1.82,11-3,17.49-3.55c6.49-0.55,13.04-0.82,19.64-0.82V485.04z M292.22,498.4c-3.85,0-7.84,0.17-11.96,0.5
		c-4.12,0.33-7.87,0.99-11.22,1.98c-3.36,0.99-6.14,2.48-8.33,4.46c-2.2,1.98-3.3,4.62-3.3,7.92c0,2.31,0.47,4.24,1.4,5.78
		c0.94,1.54,2.17,2.81,3.71,3.8c1.54,0.99,3.24,1.68,5.12,2.06c1.87,0.39,3.79,0.58,5.77,0.58c7.26,0,12.85-2.17,16.75-6.52
		c3.9-4.35,5.86-9.82,5.86-16.42v-4.13H292.22z"/>
	<path class="st1" d="M328.83,466.22c-0.11-3.3-0.28-6.22-0.49-8.75h14.69c0.22,1.98,0.38,4.27,0.5,6.85
		c0.11,2.59,0.16,4.7,0.16,6.35h0.49c2.2-4.62,5.42-8.33,9.66-11.14c4.23-2.81,8.99-4.21,14.27-4.21c2.42,0,4.46,0.22,6.11,0.66
		l-0.66,14.36c-2.2-0.55-4.57-0.82-7.09-0.82c-3.74,0-6.99,0.69-9.74,2.06c-2.75,1.38-5.03,3.22-6.85,5.53
		c-1.82,2.31-3.16,4.98-4.04,8c-0.88,3.03-1.32,6.19-1.32,9.49v41.09h-15.51v-61.39C328.99,472.22,328.93,469.52,328.83,466.22z"/>
	<path class="st1" d="M432.82,470.18h-20.79v40.64c0,4.72,0.88,8.09,2.64,10.12c1.76,2.03,4.57,3.04,8.42,3.04
		c1.43,0,2.97-0.15,4.62-0.45c1.65-0.3,3.14-0.76,4.46-1.36l0.49,12.71c-1.87,0.66-3.93,1.18-6.19,1.57
		c-2.25,0.38-4.59,0.58-7.01,0.58c-7.37,0-13.01-2.04-16.91-6.11c-3.91-4.07-5.86-10.17-5.86-18.32v-42.41h-15.02v-12.71h15.02
		v-22.44h15.35v22.44h20.79V470.18z"/>
	<path class="st1" d="M494.21,538.67c-7.7,0-14.41-1.29-20.13-3.88c-5.72-2.58-10.45-6.02-14.19-10.31
		c-3.74-4.29-6.52-9.21-8.33-14.77c-1.82-5.55-2.73-11.3-2.73-17.25v-73.6h16.34v72.61c0,3.96,0.49,7.89,1.49,11.8
		c0.99,3.91,2.61,7.4,4.87,10.48c2.25,3.08,5.23,5.56,8.91,7.43c3.68,1.87,8.28,2.81,13.78,2.81c5.39,0,9.96-0.93,13.7-2.81
		c3.74-1.87,6.74-4.35,8.99-7.43c2.25-3.08,3.88-6.57,4.87-10.48c0.99-3.9,1.49-7.84,1.49-11.8v-72.61h16.34v73.6
		c0,5.94-0.91,11.69-2.73,17.25c-1.81,5.56-4.6,10.48-8.33,14.77c-3.74,4.29-8.47,7.73-14.19,10.31
		C508.62,537.38,501.91,538.67,494.21,538.67z"/>
	<path class="st1" d="M581.84,575.31h-15.51V457.48h15.18v12.21H582c2.52-4.18,6.23-7.62,11.11-10.31
		c4.88-2.7,10.56-4.04,17.04-4.04c5.82,0,11.11,1.05,15.89,3.14c4.77,2.09,8.89,5.01,12.35,8.75c3.46,3.74,6.12,8.11,7.98,13.12
		c1.87,5.01,2.8,10.37,2.8,16.09c0,5.72-0.94,11.11-2.8,16.17c-1.87,5.06-4.5,9.46-7.9,13.2c-3.41,3.74-7.52,6.68-12.35,8.83
		c-4.83,2.14-10.26,3.22-16.3,3.22c-5.6,0-10.86-1.21-15.8-3.63c-4.94-2.42-8.84-5.83-11.69-10.23h-0.49V575.31z M633.33,496.42
		c0-3.63-0.55-7.15-1.65-10.56c-1.1-3.41-2.75-6.44-4.95-9.08c-2.2-2.64-4.93-4.73-8.17-6.27c-3.25-1.54-7.01-2.31-11.31-2.31
		c-3.96,0-7.57,0.77-10.81,2.31c-3.25,1.54-6.03,3.63-8.33,6.27c-2.31,2.64-4.1,5.67-5.36,9.08c-1.27,3.41-1.9,6.99-1.9,10.73
		c0,3.74,0.63,7.32,1.9,10.73c1.26,3.41,3.05,6.41,5.36,8.99c2.31,2.59,5.09,4.65,8.33,6.19c3.24,1.54,6.85,2.31,10.81,2.31
		c4.29,0,8.06-0.8,11.31-2.39c3.24-1.59,5.97-3.71,8.17-6.35c2.2-2.64,3.85-5.66,4.95-9.08
		C632.78,503.58,633.33,500.05,633.33,496.42z"/>
	<path class="st1" d="M729.37,521.18h52.15v14.52h-68.49V418.86h16.34V521.18z"/>
	<path class="st1" d="M845.23,485.04c0-5.83-1.76-10.15-5.28-12.95c-3.52-2.81-8.2-4.21-14.02-4.21c-4.4,0-8.56,0.85-12.46,2.56
		c-3.91,1.71-7.18,3.88-9.82,6.52l-8.25-9.9c3.85-3.63,8.55-6.49,14.11-8.58c5.55-2.09,11.52-3.14,17.91-3.14
		c5.61,0,10.48,0.8,14.61,2.39c4.12,1.6,7.51,3.77,10.15,6.52c2.64,2.75,4.62,6,5.94,9.74c1.32,3.74,1.98,7.76,1.98,12.05v34.16
		c0,2.64,0.08,5.42,0.25,8.33c0.16,2.92,0.47,5.31,0.91,7.18h-14.03c-0.88-3.74-1.32-7.48-1.32-11.22h-0.49
		c-2.86,4.18-6.46,7.43-10.81,9.74c-4.35,2.31-9.49,3.47-15.43,3.47c-3.08,0-6.3-0.41-9.66-1.24c-3.36-0.82-6.41-2.17-9.16-4.04
		c-2.75-1.87-5.03-4.35-6.85-7.43c-1.81-3.08-2.72-6.88-2.72-11.39c0-5.94,1.59-10.64,4.79-14.11c3.19-3.47,7.37-6.11,12.54-7.92
		c5.17-1.82,11-3,17.49-3.55c6.49-0.55,13.04-0.82,19.64-0.82V485.04z M841.43,498.4c-3.85,0-7.84,0.17-11.96,0.5
		c-4.12,0.33-7.87,0.99-11.22,1.98c-3.36,0.99-6.14,2.48-8.33,4.46c-2.2,1.98-3.3,4.62-3.3,7.92c0,2.31,0.47,4.24,1.4,5.78
		c0.94,1.54,2.17,2.81,3.71,3.8c1.54,0.99,3.24,1.68,5.12,2.06c1.87,0.39,3.79,0.58,5.77,0.58c7.26,0,12.85-2.17,16.75-6.52
		c3.9-4.35,5.86-9.82,5.86-16.42v-4.13H841.43z"/>
	<path class="st1" d="M901.33,523.32v12.38h-15.02V410.94h15.51v58.26h0.49c2.63-3.85,6.31-7.12,11.03-9.82
		c4.72-2.7,10.31-4.04,16.79-4.04c5.82,0,11.11,1.05,15.89,3.14c4.77,2.09,8.89,5.01,12.35,8.75c3.46,3.74,6.12,8.11,7.98,13.12
		c1.87,5.01,2.8,10.37,2.8,16.09c0,5.72-0.94,11.11-2.8,16.17c-1.87,5.06-4.5,9.46-7.9,13.2c-3.41,3.74-7.52,6.68-12.35,8.83
		c-4.83,2.14-10.26,3.22-16.3,3.22c-5.6,0-10.92-1.24-15.97-3.71c-5.05-2.47-9.11-6.08-12.18-10.81H901.33z M953.32,496.51
		c0-3.62-0.55-7.13-1.65-10.53c-1.1-3.4-2.75-6.42-4.95-9.05c-2.2-2.63-4.93-4.72-8.17-6.25c-3.25-1.54-7.01-2.31-11.31-2.31
		c-3.96,0-7.57,0.77-10.81,2.31c-3.25,1.54-6.03,3.62-8.34,6.25c-2.31,2.63-4.1,5.65-5.36,9.05c-1.27,3.4-1.9,6.97-1.9,10.7
		c0,3.73,0.63,7.3,1.9,10.7c1.26,3.4,3.05,6.39,5.36,8.97c2.31,2.58,5.09,4.63,8.34,6.17c3.24,1.54,6.85,2.3,10.81,2.3
		c4.29,0,8.06-0.79,11.31-2.39c3.24-1.59,5.96-3.7,8.17-6.34c2.2-2.63,3.85-5.65,4.95-9.05
		C952.76,503.64,953.32,500.13,953.32,496.51z"/>
</g>
<g>
	<path class="st1" d="M993.13,557.38c-3.43,0-6.43-0.76-9.01-2.29c-2.58-1.53-4.59-3.6-6.03-6.21c-1.44-2.61-2.16-5.55-2.16-8.8
		c0-3.29,0.72-6.23,2.16-8.83c1.44-2.6,3.45-4.66,6.03-6.18c2.58-1.53,5.58-2.29,9.01-2.29c3.43,0,6.42,0.75,8.98,2.26
		c2.56,1.51,4.56,3.57,6,6.18c1.44,2.61,2.16,5.56,2.16,8.85c0,3.26-0.72,6.19-2.16,8.8c-1.44,2.61-3.44,4.68-6,6.21
		C999.55,556.62,996.56,557.38,993.13,557.38z M993.13,555.3c2.95,0,5.55-0.67,7.79-2.01c2.24-1.34,3.98-3.16,5.22-5.47
		c1.24-2.31,1.86-4.89,1.86-7.74c0-2.88-0.63-5.47-1.88-7.76c-1.26-2.29-2.99-4.11-5.22-5.45c-2.22-1.34-4.81-2.01-7.76-2.01
		c-2.95,0-5.55,0.67-7.79,2.01c-2.24,1.34-3.99,3.15-5.24,5.45c-1.26,2.29-1.88,4.88-1.88,7.76c0,2.85,0.63,5.43,1.88,7.74
		c1.26,2.31,3,4.13,5.24,5.47C987.58,554.63,990.18,555.3,993.13,555.3z M986.52,549.6v-18.83h7.79c1.39,0,2.58,0.22,3.56,0.66
		c0.98,0.44,1.74,1.07,2.26,1.88c0.53,0.81,0.79,1.83,0.79,3.05c0,1.77-0.59,3.14-1.76,4.12c-1.17,0.98-2.79,1.48-4.86,1.48h-5.6
		v7.63H986.52z M988.7,540.28h5.6c1.46,0,2.57-0.33,3.33-0.99c0.76-0.66,1.15-1.64,1.15-2.93c0-1.32-0.38-2.3-1.15-2.93
		c-0.76-0.63-1.88-0.94-3.33-0.94h-5.6V540.28z M998.83,549.6l-5.39-8.19l1.83-0.76l6.01,8.96H998.83z"/>
</g>
<path class="st2" d="M61.83,70.25c0-4.78,3.87-8.65,8.65-8.65h60.56V26.99H70.48c-23.89,0-43.26,19.37-43.26,43.26v60.56h34.61
	V70.25z"/>
<path class="st2" d="M1036.39,571.75c0,4.78-3.87,8.65-8.65,8.65h-60.56v34.61h60.56c23.89,0,43.26-19.37,43.26-43.26v-60.56h-34.61
	V571.75z"/>
</svg>
