<?xml version="1.0" encoding="utf-8"?>
<!-- Generator: Adobe Illustrator 26.5.0, SVG Export Plug-In . SVG Version: 6.00 Build 0)  -->
<svg version="1.1" id="Capa_1" xmlns="http://www.w3.org/2000/svg" xmlns:xlink="http://www.w3.org/1999/xlink" x="0px" y="0px"
	 viewBox="0 0 607.35 342.15" style="enable-background:new 0 0 607.35 342.15;" xml:space="preserve">
<style type="text/css">
	.st0{fill:#FFD00F;}
	.st1{fill:#FFFFFF;}
	.st2{fill:#6E2091;}
</style>
<g>
	<g>
		<path class="st0" d="M76.7,240.6c-1.34-1.86-3.17-3.38-5.47-4.56c-2.3-1.18-4.9-1.78-7.78-1.78c-1.54,0-3.09,0.21-4.66,0.62
			c-1.57,0.42-2.99,1.09-4.27,2.02c-1.28,0.93-2.32,2.08-3.12,3.46c-0.8,1.38-1.2,3.02-1.2,4.95c0,1.86,0.37,3.41,1.1,4.66
			c0.73,1.25,1.73,2.3,2.98,3.17c1.25,0.86,2.72,1.6,4.42,2.21c1.69,0.61,3.5,1.23,5.42,1.87c2.3,0.7,4.64,1.5,7.01,2.4
			c2.37,0.9,4.51,2.08,6.43,3.55c1.92,1.47,3.49,3.31,4.7,5.52c1.21,2.21,1.82,5.01,1.82,8.4c0,3.52-0.66,6.58-1.97,9.17
			c-1.31,2.59-3.06,4.74-5.23,6.43c-2.18,1.7-4.69,2.96-7.54,3.79c-2.85,0.83-5.78,1.25-8.79,1.25c-4.29,0-8.43-0.83-12.44-2.5
			c-4-1.66-7.31-4.13-9.94-7.39l7.39-6.24c1.6,2.37,3.74,4.29,6.43,5.76c2.69,1.47,5.6,2.21,8.74,2.21c1.6,0,3.2-0.22,4.8-0.67
			c1.6-0.45,3.06-1.15,4.37-2.11c1.31-0.96,2.38-2.16,3.22-3.6c0.83-1.44,1.25-3.18,1.25-5.23c0-2.05-0.43-3.76-1.3-5.14
			c-0.86-1.38-2.03-2.54-3.5-3.5c-1.47-0.96-3.19-1.78-5.14-2.45c-1.95-0.67-4.02-1.36-6.19-2.06c-2.18-0.64-4.32-1.42-6.43-2.35
			s-4-2.11-5.67-3.55s-3.01-3.22-4.03-5.33c-1.02-2.11-1.54-4.74-1.54-7.87c0-3.39,0.69-6.3,2.07-8.74
			c1.38-2.43,3.17-4.45,5.38-6.05c2.21-1.6,4.7-2.77,7.49-3.5c2.78-0.73,5.59-1.1,8.4-1.1c3.97,0,7.68,0.7,11.14,2.11
			c3.46,1.41,6.24,3.3,8.35,5.67L76.7,240.6z"/>
		<path class="st0" d="M118.76,257.88h-12.1v23.65c0,2.74,0.51,4.71,1.54,5.89c1.02,1.18,2.66,1.77,4.9,1.77
			c0.83,0,1.73-0.09,2.69-0.26c0.96-0.18,1.82-0.44,2.59-0.79l0.29,7.39c-1.09,0.38-2.29,0.69-3.6,0.91
			c-1.31,0.22-2.67,0.34-4.08,0.34c-4.29,0-7.57-1.18-9.84-3.55c-2.27-2.37-3.41-5.92-3.41-10.66v-24.68h-8.74v-7.39h8.74v-13.06
			h8.93v13.06h12.1V257.88z"/>
		<path class="st0" d="M156.4,266.53c0-3.39-1.03-5.9-3.07-7.54c-2.05-1.63-4.77-2.45-8.16-2.45c-2.56,0-4.98,0.5-7.25,1.49
			c-2.27,0.99-4.18,2.26-5.71,3.79l-4.8-5.76c2.24-2.11,4.98-3.78,8.21-4.99c3.23-1.22,6.7-1.82,10.42-1.82
			c3.26,0,6.1,0.47,8.5,1.39c2.4,0.93,4.37,2.19,5.91,3.79c1.54,1.6,2.69,3.49,3.46,5.67c0.77,2.18,1.15,4.51,1.15,7.01v19.88
			c0,1.54,0.05,3.15,0.14,4.85c0.1,1.7,0.27,3.09,0.53,4.18h-8.16c-0.51-2.18-0.77-4.35-0.77-6.53h-0.29
			c-1.67,2.43-3.76,4.32-6.29,5.67c-2.53,1.34-5.52,2.02-8.98,2.02c-1.79,0-3.67-0.24-5.62-0.72c-1.95-0.48-3.73-1.26-5.33-2.35
			c-1.6-1.09-2.93-2.53-3.99-4.32c-1.06-1.79-1.58-4-1.58-6.63c0-3.46,0.93-6.19,2.78-8.21c1.86-2.02,4.29-3.55,7.3-4.61
			c3.01-1.06,6.4-1.74,10.18-2.06c3.78-0.32,7.59-0.48,11.43-0.48V266.53z M154.19,274.3c-2.24,0-4.56,0.1-6.96,0.29
			c-2.4,0.19-4.58,0.58-6.53,1.15c-1.95,0.58-3.57,1.44-4.85,2.59c-1.28,1.15-1.92,2.69-1.92,4.61c0,1.34,0.27,2.47,0.82,3.36
			c0.54,0.9,1.27,1.63,2.16,2.21s1.89,0.98,2.98,1.2c1.09,0.23,2.21,0.34,3.36,0.34c4.22,0,7.47-1.26,9.75-3.79
			c2.27-2.53,3.41-5.71,3.41-9.55v-2.4H154.19z"/>
		<path class="st0" d="M175.5,255.58c-0.06-1.92-0.16-3.62-0.29-5.09h8.55c0.13,1.15,0.22,2.48,0.29,3.98
			c0.06,1.51,0.1,2.74,0.1,3.7h0.29c1.28-2.69,3.15-4.85,5.62-6.48c2.46-1.63,5.23-2.45,8.31-2.45c1.41,0,2.59,0.13,3.55,0.38
			l-0.38,8.35c-1.28-0.32-2.66-0.48-4.13-0.48c-2.18,0-4.07,0.4-5.67,1.2c-1.6,0.8-2.93,1.87-3.98,3.22
			c-1.06,1.34-1.84,2.9-2.35,4.66c-0.51,1.76-0.77,3.6-0.77,5.52v23.91h-9.03v-35.72C175.59,259.07,175.56,257.5,175.5,255.58z"/>
		<path class="st0" d="M236.01,257.88h-12.1v23.65c0,2.74,0.51,4.71,1.54,5.89c1.02,1.18,2.66,1.77,4.9,1.77
			c0.83,0,1.73-0.09,2.69-0.26c0.96-0.18,1.82-0.44,2.59-0.79l0.29,7.39c-1.09,0.38-2.29,0.69-3.6,0.91
			c-1.31,0.22-2.67,0.34-4.08,0.34c-4.29,0-7.57-1.18-9.84-3.55c-2.27-2.37-3.41-5.92-3.41-10.66v-24.68h-8.74v-7.39h8.74v-13.06
			h8.93v13.06h12.1V257.88z"/>
		<path class="st0" d="M271.73,297.73c-4.48,0-8.39-0.75-11.71-2.26c-3.33-1.5-6.08-3.5-8.26-6c-2.18-2.5-3.79-5.36-4.85-8.59
			c-1.06-3.23-1.59-6.58-1.59-10.03v-42.83h9.51v42.25c0,2.3,0.29,4.59,0.86,6.87c0.58,2.27,1.52,4.31,2.83,6.1
			c1.31,1.79,3.04,3.23,5.19,4.32c2.14,1.09,4.82,1.63,8.02,1.63c3.14,0,5.79-0.54,7.97-1.63c2.17-1.09,3.92-2.53,5.23-4.32
			c1.31-1.79,2.26-3.82,2.83-6.1c0.58-2.27,0.86-4.56,0.86-6.87v-42.25h9.51v42.83c0,3.46-0.53,6.8-1.59,10.03
			c-1.06,3.23-2.67,6.1-4.85,8.59c-2.18,2.5-4.93,4.5-8.26,6C280.12,296.98,276.21,297.73,271.73,297.73z"/>
		<path class="st0" d="M322.72,319.05h-9.03v-68.56h8.83v7.11h0.29c1.47-2.43,3.62-4.43,6.47-6c2.84-1.57,6.15-2.35,9.91-2.35
			c3.39,0,6.47,0.61,9.24,1.82c2.78,1.22,5.17,2.91,7.18,5.09c2.01,2.18,3.56,4.72,4.65,7.63c1.09,2.91,1.63,6.03,1.63,9.36
			c0,3.33-0.54,6.47-1.63,9.41c-1.09,2.95-2.62,5.51-4.6,7.68c-1.98,2.18-4.38,3.89-7.18,5.14c-2.81,1.25-5.97,1.87-9.48,1.87
			c-3.26,0-6.32-0.71-9.2-2.11c-2.88-1.41-5.14-3.39-6.8-5.95h-0.29V319.05z M352.68,273.15c0-2.11-0.32-4.16-0.96-6.15
			s-1.6-3.74-2.88-5.28c-1.28-1.54-2.87-2.75-4.75-3.65c-1.89-0.9-4.08-1.34-6.58-1.34c-2.3,0-4.4,0.45-6.29,1.34
			c-1.89,0.9-3.51,2.11-4.85,3.65c-1.34,1.54-2.39,3.3-3.12,5.28c-0.74,1.98-1.1,4.07-1.1,6.24c0,2.18,0.37,4.26,1.1,6.24
			c0.73,1.98,1.78,3.73,3.12,5.23c1.34,1.51,2.96,2.71,4.85,3.6c1.89,0.9,3.98,1.34,6.29,1.34c2.5,0,4.69-0.46,6.58-1.39
			c1.89-0.93,3.47-2.16,4.75-3.7c1.28-1.54,2.24-3.3,2.88-5.28C352.36,277.31,352.68,275.26,352.68,273.15z"/>
		<path class="st0" d="M408.57,287.56h30.34v8.45h-39.85v-67.99h9.51V287.56z"/>
		<path class="st0" d="M475.98,266.53c0-3.39-1.03-5.9-3.07-7.54c-2.05-1.63-4.77-2.45-8.16-2.45c-2.56,0-4.98,0.5-7.25,1.49
			c-2.27,0.99-4.18,2.26-5.71,3.79l-4.8-5.76c2.24-2.11,4.98-3.78,8.21-4.99c3.23-1.22,6.7-1.82,10.42-1.82
			c3.26,0,6.1,0.47,8.5,1.39c2.4,0.93,4.37,2.19,5.91,3.79c1.54,1.6,2.69,3.49,3.46,5.67c0.77,2.18,1.15,4.51,1.15,7.01v19.88
			c0,1.54,0.05,3.15,0.14,4.85c0.1,1.7,0.27,3.09,0.53,4.18h-8.16c-0.51-2.18-0.77-4.35-0.77-6.53h-0.29
			c-1.67,2.43-3.76,4.32-6.29,5.67c-2.53,1.34-5.52,2.02-8.98,2.02c-1.79,0-3.67-0.24-5.62-0.72s-3.73-1.26-5.33-2.35
			c-1.6-1.09-2.93-2.53-3.99-4.32c-1.06-1.79-1.58-4-1.58-6.63c0-3.46,0.93-6.19,2.78-8.21c1.86-2.02,4.29-3.55,7.3-4.61
			c3.01-1.06,6.4-1.74,10.18-2.06c3.78-0.32,7.59-0.48,11.43-0.48V266.53z M473.77,274.3c-2.24,0-4.56,0.1-6.96,0.29
			c-2.4,0.19-4.58,0.58-6.53,1.15c-1.95,0.58-3.57,1.44-4.85,2.59c-1.28,1.15-1.92,2.69-1.92,4.61c0,1.34,0.27,2.47,0.82,3.36
			c0.54,0.9,1.27,1.63,2.16,2.21s1.89,0.98,2.98,1.2c1.09,0.23,2.21,0.34,3.36,0.34c4.22,0,7.47-1.26,9.75-3.79
			c2.27-2.53,3.41-5.71,3.41-9.55v-2.4H473.77z"/>
		<path class="st0" d="M508.63,288.8v7.2h-8.74v-72.6h9.03v33.9h0.29c1.53-2.24,3.67-4.14,6.42-5.71c2.75-1.57,6-2.35,9.77-2.35
			c3.38,0,6.47,0.61,9.24,1.82c2.78,1.22,5.17,2.91,7.18,5.09c2.01,2.18,3.56,4.72,4.65,7.63c1.09,2.91,1.63,6.03,1.63,9.36
			c0,3.33-0.54,6.47-1.63,9.41c-1.09,2.95-2.62,5.51-4.6,7.68c-1.98,2.18-4.38,3.89-7.18,5.14c-2.81,1.25-5.97,1.87-9.49,1.87
			c-3.26,0-6.35-0.72-9.29-2.16c-2.94-1.44-5.3-3.54-7.09-6.29H508.63z M538.87,273.2c0-2.11-0.32-4.15-0.96-6.13
			c-0.64-1.98-1.6-3.73-2.88-5.26c-1.28-1.53-2.87-2.74-4.75-3.64c-1.89-0.89-4.08-1.34-6.58-1.34c-2.3,0-4.4,0.45-6.29,1.34
			c-1.89,0.89-3.51,2.11-4.85,3.64c-1.34,1.53-2.38,3.29-3.12,5.26c-0.74,1.98-1.11,4.05-1.11,6.22c0,2.17,0.37,4.25,1.11,6.22
			c0.73,1.98,1.78,3.72,3.12,5.22c1.34,1.5,2.96,2.7,4.85,3.59c1.89,0.89,3.98,1.34,6.29,1.34c2.5,0,4.69-0.46,6.58-1.39
			c1.89-0.93,3.47-2.15,4.75-3.69c1.28-1.53,2.24-3.29,2.88-5.27C538.55,277.35,538.87,275.31,538.87,273.2z"/>
	</g>
	<g>
		<g>
			<rect x="39.75" y="43.59" class="st1" width="40.27" height="161.09"/>
			<rect x="311.59" y="43.59" class="st1" width="40.27" height="161.09"/>
			<path class="st1" d="M180.7,93.93c0-5.56,4.51-10.07,10.07-10.07h70.48V43.59h-70.48c-27.8,0-50.34,22.54-50.34,50.34v110.75
				h40.27V93.93z"/>
			<g>
				<path class="st0" d="M562.04,308.62c-1.99,0-3.74-0.44-5.24-1.33c-1.5-0.89-2.67-2.09-3.51-3.61c-0.84-1.52-1.26-3.23-1.26-5.12
					c0-1.91,0.42-3.63,1.26-5.14c0.84-1.51,2.01-2.71,3.51-3.6c1.5-0.89,3.25-1.33,5.24-1.33c1.99,0,3.74,0.44,5.23,1.32
					c1.49,0.88,2.66,2.08,3.49,3.6c0.84,1.52,1.26,3.24,1.26,5.15c0,1.9-0.42,3.6-1.26,5.12c-0.84,1.52-2,2.72-3.49,3.61
					C565.78,308.18,564.03,308.62,562.04,308.62z M562.04,307.41c1.72,0,3.23-0.39,4.53-1.17c1.3-0.78,2.31-1.84,3.04-3.18
					c0.72-1.34,1.08-2.84,1.08-4.5c0-1.68-0.36-3.18-1.1-4.52c-0.73-1.33-1.74-2.39-3.04-3.17c-1.29-0.78-2.8-1.17-4.52-1.17
					c-1.72,0-3.23,0.39-4.53,1.17c-1.3,0.78-2.32,1.84-3.05,3.17c-0.73,1.33-1.1,2.84-1.1,4.52c0,1.66,0.36,3.16,1.1,4.5
					c0.73,1.34,1.75,2.4,3.05,3.18C558.81,307.02,560.32,307.41,562.04,307.41z M558.19,304.09v-10.96h4.53
					c0.81,0,1.5,0.13,2.07,0.38c0.57,0.26,1.01,0.62,1.32,1.1c0.31,0.47,0.46,1.07,0.46,1.78c0,1.03-0.34,1.83-1.02,2.4
					c-0.68,0.57-1.62,0.86-2.83,0.86h-3.26v4.44H558.19z M559.47,298.67h3.26c0.85,0,1.5-0.19,1.94-0.58
					c0.44-0.38,0.67-0.95,0.67-1.7c0-0.77-0.22-1.34-0.67-1.7c-0.44-0.36-1.09-0.55-1.94-0.55h-3.26V298.67z M565.36,304.09
					l-3.14-4.77l1.07-0.44l3.49,5.21H565.36z"/>
			</g>
			<path class="st1" d="M509.38,154.56c2.06,0.63,3.56,2.55,3.56,4.82c0,2.78-2.25,5.03-5.03,5.03h-95.65v40.27l95.65,0
				c25.02,0,45.31-20.28,45.31-45.31c0-20.34-13.41-37.55-31.87-43.28v0L456.1,93.71l0,0c-2.06-0.63-3.56-2.55-3.56-4.82
				c0-2.78,2.25-5.03,5.03-5.03l75.51,0V43.59h-75.51c-25.02,0-45.31,20.28-45.31,45.31c0,20.34,13.41,37.55,31.87,43.28l0,0
				L509.38,154.56z"/>
		</g>
		<path class="st2" d="M20.14,25.17c0-2.78,2.25-5.03,5.03-5.03h35.24V0H25.17C11.27,0,0,11.27,0,25.17v35.24h20.14V25.17z"/>
		<path class="st2" d="M587.22,316.98c0,2.78-2.25,5.03-5.03,5.03h-35.24v20.14h35.24c13.9,0,25.17-11.27,25.17-25.17v-35.24h-20.14
			V316.98z"/>
	</g>
</g>
</svg>
